<svg xmlns="http://www.w3.org/2000/svg" width="38" height="24" viewBox="0 0 38 24">
    <g fill="none" fill-rule="nonzero">
        <path fill="#000" d="M35 0H3C1.3 0 0 1.3 0 3v18c0 1.7 1.4 3 3 3h32c1.7 0 3-1.3 3-3V3c0-1.7-1.4-3-3-3z" opacity=".07"/>
        <path fill="#FFF" d="M35 1c1.1 0 2 .9 2 2v18c0 1.1-.9 2-2 2H3c-1.1 0-2-.9-2-2V3c0-1.1.9-2 2-2h32"/>
        <circle cx="15" cy="12" r="7" fill="#EB001B"/>
        <circle cx="23" cy="12" r="7" fill="#F79E1B"/>
        <path fill="#FF5F00" d="M22 11.5c0-2.316-1.2-4.342-3-5.5-1.8 1.254-3 3.28-3 5.5s1.2 4.342 3 5.5c1.8-1.158 3-3.184 3-5.5z"/>
    </g>
</svg>
